<mxfile host="app.diagrams.net" modified="2024-01-26T16:57:55.111Z" agent="Mozilla/5.0 (Windows NT 10.0; Win64; x64) AppleWebKit/537.36 (KHTML, like Gecko) Chrome/120.0.0.0 Safari/537.36" etag="vf0Z2XLjzVNDfi17qRb2" version="23.0.2" type="google">
  <diagram name="‫صفحه - 1‬" id="HE2TYPNpu1qyQoRF8X_Q">
    <mxGraphModel grid="1" page="1" gridSize="10" guides="1" tooltips="1" connect="1" arrows="1" fold="1" pageScale="1" pageWidth="827" pageHeight="1169" math="0" shadow="0">
      <root>
        <mxCell id="0" />
        <mxCell id="1" parent="0" />
        <mxCell id="C-CL1DQKoUapr8Z-hu3X-1" value="خواندن نامه ها و پاراف" style="swimlane;html=1;childLayout=stackLayout;resizeParent=1;resizeParentMax=0;horizontal=0;startSize=20;horizontalStack=0;" vertex="1" parent="1">
          <mxGeometry x="76" y="120" width="800" height="170" as="geometry" />
        </mxCell>
        <mxCell id="C-CL1DQKoUapr8Z-hu3X-2" value="کاربر" style="swimlane;html=1;startSize=20;horizontal=0;" vertex="1" parent="C-CL1DQKoUapr8Z-hu3X-1">
          <mxGeometry x="20" width="780" height="80" as="geometry">
            <mxRectangle x="20" width="490" height="30" as="alternateBounds" />
          </mxGeometry>
        </mxCell>
        <mxCell id="C-CL1DQKoUapr8Z-hu3X-3" style="edgeStyle=orthogonalEdgeStyle;rounded=0;orthogonalLoop=1;jettySize=auto;html=1;" edge="1" parent="C-CL1DQKoUapr8Z-hu3X-2" source="C-CL1DQKoUapr8Z-hu3X-4" target="C-CL1DQKoUapr8Z-hu3X-5">
          <mxGeometry relative="1" as="geometry">
            <mxPoint x="110" y="32" as="targetPoint" />
          </mxGeometry>
        </mxCell>
        <mxCell id="C-CL1DQKoUapr8Z-hu3X-4" value="" style="ellipse;fillColor=strokeColor;html=1;" vertex="1" parent="C-CL1DQKoUapr8Z-hu3X-2">
          <mxGeometry x="45" y="23.5" width="30" height="30" as="geometry" />
        </mxCell>
        <mxCell id="C-CL1DQKoUapr8Z-hu3X-5" value="&lt;font style=&quot;font-size: 14px;&quot;&gt;درخواست خواندن نامه ها&lt;br&gt;&lt;/font&gt;" style="html=1;align=center;verticalAlign=top;rounded=1;absoluteArcSize=1;arcSize=13;dashed=0;whiteSpace=wrap;" vertex="1" parent="C-CL1DQKoUapr8Z-hu3X-2">
          <mxGeometry x="124" y="18.5" width="140" height="40" as="geometry" />
        </mxCell>
        <mxCell id="RVq5LIi0kweVAz1DwDK4-3" value="&lt;font style=&quot;font-size: 14px;&quot;&gt;انتخاب نامه مورد نظر&lt;/font&gt;" style="shape=mxgraph.uml25.action;html=1;align=center;verticalAlign=middle;absoluteArcSize=1;arcSize=10;dashed=0;spacingLeft=10;flipH=1;whiteSpace=wrap;" vertex="1" parent="C-CL1DQKoUapr8Z-hu3X-2">
          <mxGeometry x="361" y="17" width="150" height="43" as="geometry" />
        </mxCell>
        <mxCell id="C-CL1DQKoUapr8Z-hu3X-21" value="سامانه" style="swimlane;html=1;startSize=20;horizontal=0;" vertex="1" parent="C-CL1DQKoUapr8Z-hu3X-1">
          <mxGeometry x="20" y="80" width="780" height="90" as="geometry" />
        </mxCell>
        <mxCell id="RVq5LIi0kweVAz1DwDK4-2" value="&lt;font style=&quot;font-size: 14px;&quot;&gt;ارسال لیست نامه ها به کاربر&lt;/font&gt;" style="shape=mxgraph.uml25.action;html=1;align=center;verticalAlign=middle;absoluteArcSize=1;arcSize=10;dashed=0;spacingRight=10;whiteSpace=wrap;" vertex="1" parent="C-CL1DQKoUapr8Z-hu3X-21">
          <mxGeometry x="121" y="30" width="146" height="43" as="geometry" />
        </mxCell>
        <mxCell id="C-CL1DQKoUapr8Z-hu3X-22" value="" style="ellipse;html=1;shape=endState;fillColor=strokeColor;" vertex="1" parent="C-CL1DQKoUapr8Z-hu3X-21">
          <mxGeometry x="734" y="30" width="30" height="30" as="geometry" />
        </mxCell>
        <mxCell id="C-CL1DQKoUapr8Z-hu3X-33" style="edgeStyle=orthogonalEdgeStyle;rounded=0;orthogonalLoop=1;jettySize=auto;html=1;" edge="1" parent="C-CL1DQKoUapr8Z-hu3X-21" source="C-CL1DQKoUapr8Z-hu3X-34" target="C-CL1DQKoUapr8Z-hu3X-22">
          <mxGeometry relative="1" as="geometry" />
        </mxCell>
        <mxCell id="C-CL1DQKoUapr8Z-hu3X-34" value="&lt;font style=&quot;font-size: 14px;&quot;&gt;نمایش اطلاعات نامه مورد نظر به کاربر&lt;/font&gt;" style="html=1;align=center;verticalAlign=top;rounded=1;absoluteArcSize=1;arcSize=13;dashed=0;whiteSpace=wrap;" vertex="1" parent="C-CL1DQKoUapr8Z-hu3X-21">
          <mxGeometry x="554" y="25" width="140" height="40" as="geometry" />
        </mxCell>
        <mxCell id="C-CL1DQKoUapr8Z-hu3X-35" style="edgeStyle=orthogonalEdgeStyle;rounded=0;orthogonalLoop=1;jettySize=auto;html=1;" edge="1" parent="C-CL1DQKoUapr8Z-hu3X-1" source="C-CL1DQKoUapr8Z-hu3X-5" target="RVq5LIi0kweVAz1DwDK4-2">
          <mxGeometry relative="1" as="geometry">
            <Array as="points" />
          </mxGeometry>
        </mxCell>
        <mxCell id="C-CL1DQKoUapr8Z-hu3X-36" style="edgeStyle=orthogonalEdgeStyle;rounded=0;orthogonalLoop=1;jettySize=auto;html=1;" edge="1" parent="C-CL1DQKoUapr8Z-hu3X-1" source="RVq5LIi0kweVAz1DwDK4-2" target="RVq5LIi0kweVAz1DwDK4-3">
          <mxGeometry relative="1" as="geometry">
            <mxPoint x="323.395" y="99.72000000000003" as="targetPoint" />
            <Array as="points">
              <mxPoint x="334" y="132" />
              <mxPoint x="334" y="39" />
            </Array>
          </mxGeometry>
        </mxCell>
        <mxCell id="RVq5LIi0kweVAz1DwDK4-6" value="&lt;font style=&quot;font-size: 12px;&quot;&gt;لیست نامه‌ها&lt;/font&gt;" style="edgeLabel;html=1;align=center;verticalAlign=middle;resizable=0;points=[];" connectable="0" vertex="1" parent="C-CL1DQKoUapr8Z-hu3X-36">
          <mxGeometry x="-0.1333" y="2" relative="1" as="geometry">
            <mxPoint x="-28" y="16" as="offset" />
          </mxGeometry>
        </mxCell>
        <mxCell id="RVq5LIi0kweVAz1DwDK4-7" style="edgeStyle=orthogonalEdgeStyle;rounded=0;orthogonalLoop=1;jettySize=auto;html=1;" edge="1" parent="C-CL1DQKoUapr8Z-hu3X-1" source="RVq5LIi0kweVAz1DwDK4-3" target="C-CL1DQKoUapr8Z-hu3X-34">
          <mxGeometry relative="1" as="geometry">
            <Array as="points">
              <mxPoint x="554" y="39" />
              <mxPoint x="554" y="125" />
            </Array>
          </mxGeometry>
        </mxCell>
      </root>
    </mxGraphModel>
  </diagram>
</mxfile>
